<?xml version="1.0" encoding="iso-8859-1"?>
<!-- Generator: Adobe Illustrator 19.0.0, SVG Export Plug-In . SVG Version: 6.00 Build 0)  -->
<svg version="1.1" id="Capa_1" xmlns="http://www.w3.org/2000/svg" xmlns:xlink="http://www.w3.org/1999/xlink" x="0px" y="0px"
	 viewBox="0 0 512 512" style="enable-background:new 0 0 512 512;" xml:space="preserve">
<path style="fill:#FFAE42;" d="M192.219,438.541L73.46,319.781c-5.767-5.767-15.119-5.767-20.887,0L4.327,368.027
	c-5.768,5.767-5.768,15.119,0,20.887l118.759,118.759c2.884,2.884,6.664,4.325,10.443,4.326c3.78,0,7.56-1.443,10.444-4.326
	l48.246-48.246C197.987,453.66,197.988,444.308,192.219,438.541z"/>
<path style="fill:#FFDF63;" d="M132.28,378.603l-58.822-58.822c-5.767-5.767-15.119-5.767-20.887,0L4.326,368.027
	c-5.768,5.767-5.768,15.119,0,20.887l58.822,58.822L132.28,378.603z"/>
<path style="fill:#FFAE42;" d="M507.674,123.086L388.915,4.326c-5.767-5.767-15.12-5.767-20.887,0l-48.246,48.246
	c-5.768,5.767-5.768,15.119,0,20.887l118.759,118.759c2.884,2.884,6.664,4.326,10.443,4.326c3.78,0,7.56-1.442,10.444-4.326
	l48.246-48.246C513.442,138.205,513.442,128.853,507.674,123.086z"/>
<path style="fill:#FFDF63;" d="M447.736,63.148L388.915,4.326c-5.767-5.767-15.12-5.767-20.887,0l-48.246,48.246
	c-5.768,5.767-5.768,15.119,0,20.887l58.822,58.822L447.736,63.148z"/>
<path style="fill:#9799A0;" d="M370.358,201.022l-59.38-59.38c-5.767-5.767-15.119-5.767-20.887,0L141.643,290.091
	c-5.768,5.767-5.768,15.119,0,20.887l59.38,59.38c2.884,2.884,6.664,4.326,10.444,4.326c3.78,0,7.56-1.442,10.443-4.326
	L370.358,221.91C376.126,216.142,376.126,206.79,370.358,201.022z"/>
<path style="fill:#BEC2CC;" d="M340.11,170.775l-29.132-29.132c-5.767-5.767-15.119-5.767-20.887,0L141.643,290.091
	c-5.768,5.767-5.768,15.119,0,20.887l29.132,29.132L340.11,170.775z"/>
<path style="fill:#C745A3;" d="M281.289,429.737c5.768-5.767,5.768-15.119,0-20.887L103.15,230.712
	c-5.766-5.77-15.118-5.768-20.887,0l-59.38,59.379c-2.771,2.77-4.326,6.526-4.326,10.443c0,3.917,1.556,7.674,4.326,10.444
	l178.14,178.14c2.77,2.77,6.526,4.325,10.443,4.325c3.918,0,7.674-1.556,10.444-4.326L281.289,429.737z"/>
<path style="fill:#FF5CA5;" d="M191.661,319.223l-88.512-88.512c-5.766-5.77-15.118-5.768-20.887,0l-59.38,59.38
	c-2.771,2.77-4.326,6.526-4.326,10.443c0,3.917,1.556,7.674,4.326,10.444l88.512,88.512L191.661,319.223z"/>
<path style="fill:#C745A3;" d="M493.444,211.465c0-3.918-1.556-7.674-4.326-10.443l-178.14-178.14
	c-2.77-2.771-6.526-4.326-10.443-4.326c-3.917,0-7.674,1.556-10.443,4.326l-59.38,59.381c-5.768,5.767-5.768,15.119,0,20.887
	l178.139,178.139c2.884,2.885,6.664,4.326,10.443,4.325c3.779,0,7.56-1.442,10.443-4.325l59.381-59.38
	C491.888,219.139,493.444,215.383,493.444,211.465z"/>
<path style="fill:#FF5CA5;" d="M399.49,111.394l-88.512-88.512c-2.77-2.771-6.526-4.326-10.443-4.326
	c-3.917,0-7.674,1.556-10.443,4.326l-59.38,59.381c-5.768,5.767-5.768,15.119,0,20.887l88.512,88.512L399.49,111.394z"/>
<g>
</g>
<g>
</g>
<g>
</g>
<g>
</g>
<g>
</g>
<g>
</g>
<g>
</g>
<g>
</g>
<g>
</g>
<g>
</g>
<g>
</g>
<g>
</g>
<g>
</g>
<g>
</g>
<g>
</g>
</svg>
