<?xml version="1.0" encoding="iso-8859-1"?>
<svg xmlns="http://www.w3.org/2000/svg" xmlns:xlink="http://www.w3.org/1999/xlink" version="1.1" id="Capa_1" x="0px" y="0px" viewBox="0 0 512 512" style="enable-background:new 0 0 512 512;" xml:space="preserve" width="512px" height="512px">
<g>
	<g>
		<path d="M32,213.333V192H21.333C9.551,192,0,201.551,0,213.333v85.333C0,310.449,9.551,320,21.333,320H32v-21.333H21.333v-85.333    H32z" fill="#FFDA44"/>
	</g>
</g>
<g>
	<g>
		<path d="M167.541,109.792l-10.667-10.667c-2-2.001-4.713-3.125-7.541-3.125h-42.667c-11.782,0-21.333,9.551-21.333,21.333v21.333    H64c-11.782,0-21.333,9.551-21.333,21.333v192c0,11.782,9.551,21.333,21.333,21.333h21.333v21.333    c0,11.782,9.551,21.333,21.333,21.333h42.667c2.829-0.001,5.541-1.125,7.541-3.125l10.667-10.667c2.001-2,3.125-4.713,3.125-7.541    V117.333C170.666,114.505,169.542,111.792,167.541,109.792z M149.333,390.251l-4.416,4.416h-38.251v-32    c0-5.891-4.776-10.667-10.667-10.667H64V160h32c5.891,0,10.667-4.776,10.667-10.667v-32h38.251l4.416,4.416V390.251z" fill="#FFDA44"/>
	</g>
</g>
<g>
	<g>
		<path d="M490.667,192H480v21.333h10.667v85.333H480V320h10.667c11.782,0,21.333-9.551,21.333-21.333v-85.333    C512,201.551,502.449,192,490.667,192z" fill="#FFDA44"/>
	</g>
</g>
<g>
	<g>
		<path d="M448,138.667h-21.333v-21.333c0-11.782-9.551-21.333-21.333-21.333h-42.667c-2.829,0.001-5.541,1.125-7.541,3.125    l-10.667,10.667c-2.001,2-3.125,4.713-3.125,7.541v277.333c0.001,2.829,1.125,5.541,3.125,7.541l10.667,10.667    c2,2.001,4.713,3.125,7.541,3.125h42.667c11.782,0,21.333-9.551,21.333-21.333v-21.333H448c11.782,0,21.333-9.551,21.333-21.333    V160C469.333,148.218,459.782,138.667,448,138.667z M448,352h-32c-5.891,0-10.667,4.776-10.667,10.667v32h-38.251l-4.416-4.416    V121.749l4.416-4.416h38.251v32c0,5.891,4.776,10.667,10.667,10.667h32V352z" fill="#FFDA44"/>
	</g>
</g>
<g>
	<g>
		<path d="M352,213.333H160c-5.891,0-10.667,4.776-10.667,10.667v64c0,5.891,4.776,10.667,10.667,10.667h192    c5.891,0,10.667-4.776,10.667-10.667v-64C362.667,218.109,357.891,213.333,352,213.333z M341.333,277.333H170.667v-42.667h170.667    V277.333z" fill="#FFDA44"/>
	</g>
</g>
<g>
	<g>
		<rect x="85.333" y="149.333" width="21.333" height="128" fill="#FFDA44"/>
	</g>
</g>
<g>
	<g>
		<rect x="85.333" y="298.667" width="21.333" height="21.333" fill="#FFDA44"/>
	</g>
</g>
<g>
	<g>
		<rect x="405.333" y="234.667" width="21.333" height="128" fill="#FFDA44"/>
	</g>
</g>
<g>
	<g>
		<rect x="405.333" y="192" width="21.333" height="21.333" fill="#FFDA44"/>
	</g>
</g>
<g>
</g>
<g>
</g>
<g>
</g>
<g>
</g>
<g>
</g>
<g>
</g>
<g>
</g>
<g>
</g>
<g>
</g>
<g>
</g>
<g>
</g>
<g>
</g>
<g>
</g>
<g>
</g>
<g>
</g>
</svg>
