<?xml version="1.0" encoding="iso-8859-1"?>
<!-- Generator: Adobe Illustrator 19.0.0, SVG Export Plug-In . SVG Version: 6.00 Build 0)  -->
<svg version="1.1" id="Capa_1" xmlns="http://www.w3.org/2000/svg" xmlns:xlink="http://www.w3.org/1999/xlink" x="0px" y="0px"
	 viewBox="0 0 512 512" style="enable-background:new 0 0 512 512;" xml:space="preserve">
<path style="fill:#FFAE42;" d="M434.671,297.087h-42.802l-45.075-45.076l3.744-11.231c8.065-24.195,1.873-50.429-16.161-68.464
	l-15.781-15.78c-10.458-10.459-24.363-16.219-39.156-16.219c-6.9,0-13.389-2.687-18.268-7.567l-9.853-9.852
	c-4.88-4.88-7.567-11.367-7.567-18.269c0-14.791-5.76-28.697-16.219-39.155L205.788,43.73c-3.601-3.602-8.803-5.094-13.764-3.947
	l-54.662,12.615c-2.697,0.622-5.165,1.99-7.122,3.947L10.434,176.15C3.705,182.878,0,191.824,0,201.339s3.705,18.462,10.434,25.188
	l241.744,241.744c1.087,1.088,2.329,1.987,3.672,2.678c2.031,1.053,4.339,1.647,6.785,1.647h234.596
	c8.157,0,14.769-6.613,14.769-14.769v-83.412C512,331.776,477.311,297.087,434.671,297.087z"/>
<path style="fill:#FFDF63;" d="M256,127.581l-4.682-4.682c-4.88-4.88-7.567-11.367-7.567-18.269c0-14.791-5.76-28.697-16.219-39.155
	L205.788,43.73c-3.601-3.602-8.803-5.094-13.764-3.947l-54.662,12.615c-2.697,0.622-5.165,1.99-7.122,3.947L10.434,176.15
	C3.705,182.878,0,191.824,0,201.339s3.705,18.462,10.434,25.188l241.744,241.744c1.087,1.088,2.329,1.987,3.672,2.678
	c0.049,0.026,0.102,0.042,0.152,0.068L256,127.581L256,127.581z"/>
<g>
	<path style="fill:#D2D6E3;" d="M283.482,284.923c-6.328,0-12.181-4.099-14.122-10.465c-2.379-7.802,2.017-16.055,9.82-18.435
		l86.595-26.402c7.805-2.378,16.056,2.018,18.435,9.821c2.379,7.802-2.017,16.056-9.82,18.435l-86.595,26.402
		C286.359,284.716,284.907,284.923,283.482,284.923z"/>
	<path style="fill:#D2D6E3;" d="M319.028,320.469c-6.328,0-12.181-4.099-14.122-10.465c-2.379-7.802,2.017-16.056,9.821-18.435
		l75.446-23.003c7.806-2.379,16.056,2.018,18.435,9.821c2.379,7.802-2.017,16.056-9.82,18.435l-75.448,23.003
		C321.905,320.261,320.454,320.469,319.028,320.469z"/>
	<path style="fill:#D2D6E3;" d="M262.633,472.597H98.462c-8.157,0-14.769-6.613-14.769-14.769c0-8.157,6.613-14.769,14.769-14.769
		h164.172c8.157,0,14.769,6.613,14.769,14.769C277.403,465.984,270.79,472.597,262.633,472.597z"/>
	<path style="fill:#D2D6E3;" d="M203.544,413.52h-65.697c-8.157,0-14.769-6.613-14.769-14.769s6.613-14.769,14.769-14.769h65.697
		c8.157,0,14.769,6.613,14.769,14.769S211.7,413.52,203.544,413.52z"/>
</g>
<path style="fill:#9799A0;" d="M497.231,390.926H297.645l-240.55-240.55c-2.77-2.77-6.526-4.326-10.443-4.326
	s-7.673,1.557-10.443,4.326l-25.775,25.775c-13.889,13.889-13.889,36.488,0,50.377l241.744,241.744
	c1.619,1.62,3.574,2.823,5.702,3.545c0.906,0.308,1.852,0.531,2.828,0.657c0.619,0.081,1.247,0.123,1.877,0.124
	c0.018,0,0.032,0,0.049,0h234.597c8.157,0,14.769-6.613,14.769-14.769v-52.132C512,397.539,505.387,390.926,497.231,390.926z"/>
<path style="fill:#BEC2CC;" d="M256,349.281L57.095,150.376c-2.77-2.77-6.526-4.326-10.443-4.326s-7.673,1.557-10.443,4.326
	l-25.775,25.775c-13.889,13.889-13.889,36.488,0,50.377l241.744,241.744c1.127,1.127,2.424,2.038,3.822,2.74V349.281z"/>
<g>
</g>
<g>
</g>
<g>
</g>
<g>
</g>
<g>
</g>
<g>
</g>
<g>
</g>
<g>
</g>
<g>
</g>
<g>
</g>
<g>
</g>
<g>
</g>
<g>
</g>
<g>
</g>
<g>
</g>
</svg>
